<?xml version="1.0" standalone="no"?>
<!DOCTYPE svg PUBLIC "-//W3C//DTD SVG 20010904//EN"
 "http://www.w3.org/TR/2001/REC-SVG-20010904/DTD/svg10.dtd">
<svg version="1.0" xmlns="http://www.w3.org/2000/svg"
 width="300.000000pt" height="300.000000pt" viewBox="0 0 300.000000 300.000000"
 preserveAspectRatio="xMidYMid meet">
<metadata>
Created by potrace 1.11, written by Peter Selinger 2001-2013
</metadata>
<g transform="translate(0.000000,300.000000) scale(0.100000,-0.100000)"
fill="#000000" stroke="none">
<path d="M0 1500 l0 -1500 1500 0 1500 0 0 1500 0 1500 -1500 0 -1500 0 0
-1500z m1688 910 c52 -37 72 -92 52 -141 -15 -36 -45 -67 -77 -80 -21 -8 -23
-15 -23 -88 l0 -80 43 -11 c23 -6 69 -22 101 -35 33 -14 63 -22 67 -18 4 5 19
43 33 85 l26 78 -20 32 c-36 59 -19 107 48 140 40 19 50 20 91 9 54 -14 91
-53 91 -96 0 -42 -24 -72 -77 -98 -43 -21 -48 -27 -75 -102 -49 -133 -52 -120
39 -174 42 -24 55 -28 65 -17 7 7 20 17 29 22 9 5 45 35 80 67 59 52 65 60 61
91 -2 19 3 49 12 68 53 112 286 94 311 -24 23 -103 -61 -179 -184 -165 -40 4
-49 1 -100 -38 -102 -78 -135 -111 -128 -126 4 -8 22 -35 41 -61 19 -26 36
-52 38 -58 2 -8 33 -3 91 14 101 29 127 42 127 60 0 18 41 54 78 67 41 14 94
-3 122 -38 63 -80 -42 -182 -143 -139 -41 17 -38 17 -163 -20 l-92 -27 0 -72
-1 -72 116 -26 115 -27 33 20 c36 23 122 27 158 9 37 -19 57 -52 57 -96 0 -58
-7 -71 -51 -93 -79 -41 -188 -15 -212 50 -7 20 -18 30 -32 30 -11 0 -63 11
-115 25 -110 29 -110 28 -110 14 0 -12 -57 -88 -78 -104 -11 -9 1 -24 55 -71
124 -109 133 -114 190 -108 65 8 111 -7 153 -51 30 -31 34 -41 33 -86 -1 -88
-69 -135 -182 -127 -96 7 -160 76 -145 157 5 23 -6 35 -102 110 l-107 84 -34
-18 c-19 -10 -49 -32 -68 -49 l-34 -31 56 -97 c50 -86 59 -97 90 -103 38 -7
87 -48 97 -81 15 -49 -48 -114 -118 -121 -45 -5 -100 15 -123 46 -15 20 -16
68 -2 109 11 32 3 55 -58 159 l-24 41 -60 -23 c-65 -26 -62 -25 -84 -25 -12 0
-15 -19 -15 -113 0 -112 0 -114 26 -128 47 -25 74 -66 74 -115 0 -86 -60 -134
-165 -134 -47 0 -73 6 -100 21 -36 21 -75 82 -75 116 0 29 37 81 75 105 l35
23 -2 105 -3 105 -52 7 c-28 4 -70 14 -93 22 -40 14 -41 13 -54 -13 -8 -14
-21 -49 -29 -77 -8 -28 -21 -60 -28 -71 -10 -17 -9 -25 9 -51 77 -108 -82
-213 -191 -126 -75 60 -48 137 58 168 12 4 27 24 38 53 10 27 23 56 28 65 5
10 9 23 9 30 0 7 7 26 15 42 9 16 14 30 13 30 -2 1 -26 21 -54 44 -29 23 -59
42 -67 42 -9 0 -37 -18 -64 -40 -146 -122 -133 -106 -133 -164 0 -53 -22 -96
-49 -96 -6 0 -11 -4 -11 -10 0 -12 -65 -30 -108 -30 -72 0 -146 54 -157 114
-18 93 61 160 180 154 l61 -3 92 74 92 74 -57 61 c-32 34 -65 71 -73 84 l-15
23 -80 -25 c-45 -13 -79 -29 -77 -35 1 -7 -10 -25 -26 -42 -52 -55 -149 -49
-192 11 -28 39 -25 67 9 101 26 25 37 29 88 29 33 0 64 -5 70 -11 9 -9 20 -9
40 -2 15 6 48 16 73 23 25 7 51 14 58 16 10 3 10 9 2 23 -5 11 -10 50 -10 88
l0 68 -83 16 c-72 15 -84 15 -98 3 -46 -41 -148 -36 -197 9 -18 17 -22 31 -22
78 0 50 3 60 26 78 44 34 99 45 149 28 51 -18 85 -45 85 -69 0 -11 12 -20 38
-27 126 -33 136 -35 140 -23 2 7 24 40 49 73 24 34 41 65 36 69 -4 4 -33 29
-62 54 -48 40 -59 45 -88 40 -59 -11 -117 4 -162 42 -38 33 -41 39 -41 87 1
86 62 137 165 137 58 0 82 -9 128 -49 23 -21 27 -32 27 -80 l0 -56 67 -54 67
-54 40 22 c23 12 60 39 83 59 l43 37 -28 55 c-24 46 -33 55 -59 58 -17 2 -46
18 -68 38 -34 30 -37 38 -32 70 18 110 193 131 244 29 12 -24 8 -62 -11 -89
-11 -17 -9 -27 13 -68 28 -53 29 -53 86 -34 22 8 66 17 98 21 l57 7 0 77 0 76
-36 20 c-47 25 -74 65 -74 110 0 83 64 133 171 134 58 1 71 -3 107 -29z"/>
</g>
</svg>
